<?xml version="1.0" ?><svg class="bi bi-grip-vertical" fill="currentColor" height="16" viewBox="0 0 16 16" width="16" xmlns="http://www.w3.org/2000/svg"><path d="M7 2a1 1 0 1 1-2 0 1 1 0 0 1 2 0zm3 0a1 1 0 1 1-2 0 1 1 0 0 1 2 0zM7 5a1 1 0 1 1-2 0 1 1 0 0 1 2 0zm3 0a1 1 0 1 1-2 0 1 1 0 0 1 2 0zM7 8a1 1 0 1 1-2 0 1 1 0 0 1 2 0zm3 0a1 1 0 1 1-2 0 1 1 0 0 1 2 0zm-3 3a1 1 0 1 1-2 0 1 1 0 0 1 2 0zm3 0a1 1 0 1 1-2 0 1 1 0 0 1 2 0zm-3 3a1 1 0 1 1-2 0 1 1 0 0 1 2 0zm3 0a1 1 0 1 1-2 0 1 1 0 0 1 2 0z"/></svg>